<svg width="94" height="172" fill="none" xmlns="http://www.w3.org/2000/svg"><g fill="#51862A" clip-path="url(#a)"><path d="M36.922 119.398a22.94 22.94 0 0 0-1.9-.35c-2.859-.618-5.574-1.624-7.819-3.425-1.02-.819-2.244-1.802-2.937-3.029-.448-.695-.733-1.595-1.018-2.494-.65-2.534.6-4.719 3.115-5.552 1.063-.489 2.37-.446 3.494-.383 3.023.414 5.228 1.848 7 4.445 1.122 1.739 2.079 3.681 2.668 5.664.245.532.325 1.267.59 1.983.591.307 1.143.247 1.695.186 5.945-.092 11.322-1.983 16.17-5.306 3.62-2.63 6.812-5.771 9.209-9.383 7.987-12.041 12.136-25.151 12.22-39.678.075-7.825-1.487-15.285-4.499-22.4-1.994-4.62-4.684-8.792-7.906-12.72-2.366-2.905-5.099-5.77-7.975-8.247-8.427-7.267-17.962-11.062-28.79-11.366a67.504 67.504 0 0 0-12.198.777c-3.29.547-6.54 1.46-9.587 2.539-1.41.712-2.841 1.241-4.172 2.69.124-.572.083-.94.247-1.144.308-.592.983-1.224 1.678-1.672 1.227-.693 2.454-1.386 3.701-1.895 2.495-1.017 4.845-1.647 7.4-2.112 5.477-.972 11.198-1.412 16.857-.729 7.333.686 14.112 3.108 20.297 6.898 5.592 3.482 10.182 8.005 14.484 13.303 1.937 2.394 3.69 4.808 5.3 7.61 4.808 8.22 7.286 17.255 7.781 26.879.533 11.667-1.978 22.736-6.776 33.312-2.111 4.512-4.611 8.88-7.723 12.757-5.425 6.549-12.03 10.809-20.39 12.654-1.451.345-2.922.506-4.394.667-.552.061-.94-.083-1.491-.023-.288.776-.227 1.328-.187 1.696.581 7.009-.33 13.995-2.567 20.754-1.54 4.635-3.836 9.167-6.947 13.044l-1.147 1.428c-.348.224-.695.448-1.063.489-.552.06-1.164-.431-1.04-1.003l.43-1.164c.862-2.328 2.112-4.512 3.362-6.696 4.672-8.328 6.3-17.254 5.274-26.633-.121-1.104-.181-1.656-.446-2.371Zm-.79-3.822c-.101-.919-.57-1.799-.854-2.698-.509-1.247-1.202-2.474-2.242-3.477-1.265-1.351-2.816-1.925-4.635-1.54-1.268.325-1.575.917-1.086 1.98.264.716.712 1.411 1.345 2.086 1.896 2.026 4.265 3.256 6.92 3.709l.552-.06ZM32.352 166.055c-1.167 1.244-2.518 2.509-3.908 3.406-.696.448-1.207.876-1.923 1.141-1.615.549-2.942.322-4.35-.641-1-.635-1.653-1.494-2.325-2.537-1.346-2.086-2.159-4.417-3.156-6.727-.02-.184-.06-.552-.265-.715-.06-.552.083-.94.615-1.184.532-.245.9-.285 1.308.043.428.511 1.02.818 1.264 1.35 1.1 1.555 2.202 3.109 3.098 4.5.449.695.897 1.391 1.51 1.882.427.511.815.655 1.53.391 1.248-.509 2.067-1.529 3.11-2.202.695-.448 1.187-1.06 1.882-1.509.348-.224.695-.448.86-.652.715-.265 1.266-.325 1.695.187.408.327.488 1.063.18 1.655-.163.204-.307.592-.47.796.02.184-.308.592-.655.816Z"/></g><defs><clipPath id="a"><path fill="#fff" transform="rotate(-6.247 75.445 4.117)" d="M0 0h75.669v164.474H0z"/></clipPath></defs></svg>