<svg width="139" height="84" fill="none" xmlns="http://www.w3.org/2000/svg"><g clip-path="url(#a)" fill="#51862A"><path d="M84.213 36.413c.194.578.194.963.387 1.541.775 2.697 1.162 5.587 1.162 8.67 0 1.926-.194 3.853-.968 5.78-.387 1.155-.968 2.311-1.549 3.275-2.517 3.66-7.163 5.009-11.035 3.468-3.872-1.542-5.614-5.202-4.646-9.44.387-1.735 1.162-3.276 2.323-4.817 2.13-3.276 4.84-6.165 8.131-8.477l1.742-1.156c-.193-.386-.193-.77-.387-1.156-1.161-2.312-2.517-4.239-3.872-6.165-2.323-2.89-4.646-5.78-7.356-8.477-5.227-5.01-11.422-8.67-18.585-10.982-5.808-1.734-12.003-2.12-18.585-1.156-3.872.578-8.131 1.349-12.39 2.505-1.549.192-2.904.577-4.26.963h-1.548c-.193 0-.387-.386-.387-.578 0-.193.194-.578.387-.578.581-.385 1.355-.578 1.936-.963 4.26-1.542 8.712-2.698 12.97-3.468 4.84-.771 9.68-1.349 14.327-.964 7.356.578 13.939 2.89 19.94 6.358 3.291 1.927 6.388 4.239 9.099 6.936 2.323 2.312 4.452 4.817 6.582 7.321 1.936 2.312 3.485 4.817 4.84 7.514.193.385.387.578.58.963 1.162-.385 2.324-.963 3.292-1.348 5.033-1.735 10.066-2.312 14.906-1.735 7.163.771 13.552 3.468 19.166 7.707 6.582 5.01 11.809 11.367 15.294 19.073 1.549 3.083 2.517 6.55 2.904 10.019.581 5.009 0 10.018-1.936 14.642-.387.77-.581 1.541-1.355 2.12-.194.192-.387.192-.581 0-.194 0-.194-.386-.194-.386 0-.193.194-.578.194-.77 1.162-3.661 1.549-7.322 1.549-11.175-.194-4.431-1.355-8.67-3.098-12.523-4.452-9.248-10.841-16.376-19.359-21.193-5.227-2.89-10.841-4.43-16.843-4.43-3.872 0-7.55.77-11.422 2.311-.387.193-.774.385-1.355.77Zm-3.097 1.734c-.388.192-.581.192-.581.192-3.485 2.312-6.389 5.202-8.325 8.863-.58.963-.968 2.119-1.161 3.082-.387 2.89 1.161 5.01 3.872 5.587 1.742.386 3.29-.192 4.646-1.348a8.56 8.56 0 0 0 1.549-2.12c.58-1.155.968-2.504 1.161-3.853.387-3.082 0-5.972-.58-9.055-.194-.192-.388-.77-.581-1.348Z"/><path d="M4.26 12.716c.773.192 1.548.385 2.322.77 2.323.77 4.453 1.541 6.776 2.312.58.193.968.385 1.355.578.387.193.775.578.968.963.387.578.387 1.156 0 1.927-.387.578-.774.77-1.549.77-3.29-.77-6.969-1.155-10.454-2.504-.58-.192-1.161-.385-1.742-.77-1.742-1.35-2.323-3.083-1.742-5.01.193-.578.387-.963.58-1.348C2.71 6.744 5.421 3.66 8.324.964 8.906.577 9.487.192 9.875 0c.386 0 .774 0 1.16.385.388.386.388.771.194 1.156-.387.386-.774.964-1.161 1.349L7.163 6.358c-.58 1.156-1.355 2.12-1.936 3.275-.387.77-.968 1.734-.968 3.083Z"/></g><defs><clipPath id="a"><path fill="#fff" d="M0 0h139v84H0z"/></clipPath></defs></svg>