<svg width="98" height="134" fill="none" xmlns="http://www.w3.org/2000/svg"><g clip-path="url(#a)" fill="#51862A"><path d="M29.658 104.535c.05-.193.29-.337.29-.337 6.537-4.08 12.791-8.644 18.712-13.499 9.674-7.593 18.448-16.442 25.552-25.924 6.912-9.53 12.062-20.128 14.82-30.925 1.183-4.628 1.792-9.402 1.97-14.08.006-.82.012-1.64.21-2.412.147-.578.486-1.108 1.108-1.154.623-.047 1.147.293 1.19.92.185.869.561 1.786.555 2.607.407 3.184.383 6.465-.072 9.84-.966 7.764-3.56 15.523-7.058 22.845-4.374 9.152-10.227 17.721-17.269 25.37-5.453 6.207-11.762 11.783-18.546 16.828-5.484 3.94-11.442 7.346-17.352 10.561-.72.432-1.583.622-2.495 1.005-1.005-.051-1.338-.341-1.615-1.645Z"/><path d="M5.81 113.436c1.289.535 2.534.442 3.587.3 6.126-.078 12.159-.59 18.241-1.295 3.352-.376 6.514-.801 9.866-1.177.863-.19 1.818.054 2.822.105.191.049.475.532.426.725-.05.193-.148.579-.388.723-.912.383-1.775.573-2.638.763-7.955 1.665-15.954 2.702-23.854 3.354-2.49.185-5.121.129-7.561.122-1.005-.052-2.25.041-3.205-.203-2.293-.586-3.285-2.277-2.22-4.059.678-1.059 1.356-2.118 2.176-2.936 3.567-3.607 7.418-6.731 11.269-9.855l3.032-2.306c.72-.432 1.392-.672 1.916-.332.524.339.758 1.015.37 1.737-.148.579-.628.867-.727 1.252-1.546 2.07-3.284 4.091-5.354 5.821-2.07 1.731-3.9 3.317-5.97 5.048-.58.673-1.35 1.298-1.787 2.213Z"/></g><defs><clipPath id="a"><path fill="#fff" transform="rotate(14.333 14.853 118.133)" d="M0 0h70v120H0z"/></clipPath></defs></svg>