<svg width="151" height="219" fill="none" xmlns="http://www.w3.org/2000/svg"><g clip-path="url(#a)" fill="#51862A"><path d="M58.526 98.886c.146-.793.174-1.292.408-1.88.406-3.582 1.017-7.252 2.216-10.688a19.228 19.228 0 0 1 3.571-6.403c.967-1.146 2.022-2.087 3.077-3.027 4.28-3.058 9.74-2.242 13.12 1.66 3.47 4.106 3.859 9.536.9 13.972-1.2 1.734-2.694 3.35-4.366 4.555-3.664 2.793-7.859 4.353-12.318 5.297-.704.06-1.614.207-2.23.472l-.086 1.498c.21 3.317.831 6.457 1.54 9.803 1.122 4.872 2.45 9.656 4.275 14.469 3.36 9.508 8.478 18.016 14.945 25.7 5.35 6.218 11.666 11.291 18.95 15.217 4.758 2.578 9.632 4.863 14.536 6.649 1.673.497 3.23 1.288 4.786 2.079a4.856 4.856 0 0 1 1.733 1.202c.089.205.265.616.148.91-.117.293-.527.47-.732.558l-2.378-.438c-5.226-1.403-10.218-3.394-15.093-5.679-5.55-2.725-10.778-5.831-15.567-9.613-7.55-6.245-13.43-13.695-18.255-22.086-2.648-4.46-4.973-9.301-6.594-14.202-1.356-4.285-2.623-8.364-3.98-12.649-1.179-3.874-1.859-7.719-2.129-11.74.029-.499-.148-.91-.119-1.409-1.291-.175-2.788-.262-4.08-.436-5.959-.846-11.626-3.276-16.737-6.676-7.226-4.925-12.87-11.26-17.136-18.918-5.001-8.801-7.773-18.075-8.491-28.232-.27-4.021-.04-8.014.893-12.066 1.43-5.726 4.123-10.779 8.079-15.157.439-.676 1.172-1.234 1.993-1.587a.48.48 0 0 1 .587.234c.089.205.177.41.06.704-.117.294-.322.382-.645.764-2.49 3.262-4.51 7.05-6.059 11.368-1.783 4.904-2.07 9.895-1.769 15.12 1.015 11.977 4.787 23.011 12.137 32.75 4.264 5.955 9.7 10.676 16.307 14.162 4.082 2.139 8.516 3.397 13.094 3.861.206-.088.705-.059 1.409-.118Zm4.225-.357c.5.029.588.234.793.146 4.841-.622 9.153-2.476 12.64-5.68 1.056-.94 1.906-1.792 2.58-3.055 1.58-3.114.87-6.46-1.803-8.717-1.616-1.496-3.612-1.61-5.46-.816-.821.353-1.76 1-2.492 1.558-1.26 1.029-2.14 2.38-2.724 3.849-1.991 3.29-2.808 7.048-3.419 10.719-.029.499-.174 1.291-.114 1.996ZM144.047 185.751l-1.676-2.2-5.027-6.6c-.471-.528-.647-.939-.912-1.555-.177-.411-.442-1.027-.413-1.526-.148-.91.291-1.586 1.112-1.939.616-.265 1.321-.324 1.791.204 3.144 2.785 6.405 5.277 8.904 8.827.471.528.824 1.349 1.089 1.966.971 2.259.446 4.432-1.547 6.019-.528.471-.938.647-1.554.912-4.135 2.265-8.623 3.708-13.376 4.535-.705.06-1.203.031-1.702.002-.499-.029-.676-.44-.941-1.056.029-.499.057-.998.468-1.175l1.848-.794c1.73-.501 3.461-1.002 4.898-1.62l3.901-1.678c1.232-.529 2.259-.971 3.137-2.322Z"/></g><defs><clipPath id="a"><path fill="#fff" transform="rotate(-23.269 73.109 15.053)" d="M0 0h76.208v204.81H0z"/></clipPath></defs></svg>