<svg width="204" height="146" fill="none" xmlns="http://www.w3.org/2000/svg"><g opacity=".6" clip-path="url(#a)" fill="#000"><path d="M119.855 61.581c.4.708.497 1.213.898 1.922 1.698 3.338 2.936 7.026 3.715 11.065.486 2.525.718 5.098.187 7.819-.217 1.612-.689 3.274-1.209 4.683-2.383 5.434-8.148 8.377-13.625 7.338-5.477-1.04-8.69-5.395-8.488-11.193.071-2.37.699-4.586 1.836-6.9 1.972-4.83 4.804-9.303 8.545-13.165l1.998-1.956c-.352-.456-.449-.96-.801-1.417-2.11-2.735-4.377-4.916-6.644-7.097-3.782-3.199-7.565-6.397-11.807-9.245-8.133-5.24-17.198-8.468-27.194-9.684-8.07-.801-16.308.263-24.714 3.191-4.942 1.738-10.345 3.826-15.65 6.419-1.986.644-3.67 1.492-5.353 2.34l-2.035.392c-.255.05-.606-.407-.655-.659-.049-.252.108-.806.363-.855.666-.652 1.635-1.1 2.3-1.753 5.208-3.098 10.768-5.74 16.17-7.828 6.165-2.235 12.38-4.217 18.582-4.889 9.813-1.105 19.046.258 27.808 3.282 4.811 1.691 9.465 3.937 13.707 6.784 3.637 2.442 7.067 5.184 10.498 7.927 3.128 2.539 5.795 5.428 8.257 8.62.351.455.655.658 1.006 1.114 1.429-.799 2.81-1.85 3.984-2.6 6.177-3.546 12.645-5.578 19.151-6.046 9.607-.804 18.683 1.113 27.131 5.245 9.914 4.897 18.388 11.904 24.912 21.12 2.814 3.646 4.961 7.945 6.345 12.39 2.028 6.417 2.529 13.127 1.153 19.676-.315 1.108-.374 2.167-1.246 3.12-.206.301-.46.35-.763.147-.255.049-.352-.456-.352-.456-.049-.252.109-.806.06-1.059.602-5.09.187-9.984-.786-15.033-1.373-5.757-3.969-11.017-7.231-15.624-8.186-10.99-18.381-18.712-30.79-22.867-7.598-2.463-15.365-3.061-23.251-1.542-5.088.98-9.727 2.922-14.426 5.921-.46.35-.92.701-1.586 1.353Zm-3.633 3.056c-.46.35-.714.4-.714.4-3.996 3.911-7.082 8.433-8.702 13.72-.52 1.409-.737 3.021-.748 4.333.22 3.884 2.791 6.269 6.498 6.34 2.387.064 4.276-1.086 5.765-2.943.617-.905 1.186-2.061 1.5-3.17.472-1.66.64-3.526.554-5.342-.27-4.137-1.508-7.826-3.049-11.718-.303-.203-.704-.911-1.104-1.62Z"/><path d="M8.807 50.774c1.066.057 2.133.113 3.248.422 3.247.422 6.24.892 9.487 1.314.812.105 1.37.26 1.927.414a3.11 3.11 0 0 1 1.515 1.017c.655.66.8 1.417.486 2.524-.363.856-.823 1.206-1.84 1.402-4.52-.176-9.45.25-14.37-.635-.812-.105-1.624-.21-2.484-.568-2.63-1.326-3.831-3.451-3.554-6.123.108-.806.265-1.36.422-1.914 1.62-5.286 4.404-10.011 7.539-14.28.666-.653 1.332-1.304 1.792-1.655.508-.098 1.017-.196 1.623.211.606.407.704.912.547 1.466-.412.602-.775 1.458-1.186 2.06l-2.94 5.28c-.472 1.661-1.247 3.12-1.718 4.781-.314 1.108-.834 2.517-.494 4.284Z"/></g><defs><clipPath id="a"><path fill="#fff" transform="rotate(-10.905 184.336 17.596)" d="M0 0h186.016v112.087H0z"/></clipPath></defs></svg>