<svg width="187" height="46" fill="none" xmlns="http://www.w3.org/2000/svg"><g fill="#000" opacity=".6" clip-path="url(#a)"><path d="M150.368 21.33h-.768c-10.247-3.598-20.493-6.425-30.74-8.995-16.65-4.112-33.557-6.425-50.208-5.654-16.395.514-32.02 4.112-46.366 10.28-6.148 2.827-11.783 6.167-16.907 10.022-.768.514-1.793 1.285-2.817 1.799-.769.514-1.794.257-2.306-.257-.512-.77-.512-1.542 0-2.056l2.306-3.084c3.074-3.34 6.66-5.91 10.502-8.223C22.286 9.508 32.79 5.654 44.06 3.084 57.637 0 71.982-.771 86.583.257c11.528.77 22.799 2.827 34.07 5.91 8.966 2.57 17.676 6.168 26.385 10.023 1.025.514 2.05 1.028 3.074 1.799 1.281 1.285 1.281 2.056.256 3.34Z"/><path d="M180.34 40.09c-.513-1.8-1.537-3.085-2.562-4.37-5.379-6.681-11.015-12.849-16.907-19.016-3.33-3.341-6.404-6.682-9.734-10.023-1.025-1.028-1.537-2.055-2.306-3.083-.256-.257 0-.771.257-1.028.256-.257.768-.257 1.024 0 1.025.514 2.306 1.285 3.074 2.056 8.454 7.452 16.651 15.162 24.08 23.385a103.574 103.574 0 0 1 6.66 8.223c1.025 1.285 1.793 2.313 2.562 3.598 1.537 3.084.256 5.397-2.562 5.91-1.537.258-3.33.258-5.123 0-6.917-.77-13.577-2.312-20.493-4.11-1.794-.515-3.331-.772-5.124-1.286-1.281 0-2.049-.77-2.049-1.799 0-.77.512-1.798 1.537-2.055.768-.258 1.537-.258 2.049-.258 3.587-.257 7.173.258 10.759.771 3.586.771 6.917 1.542 10.503 2.313 1.537.514 2.818 1.028 4.355.771Z"/></g><defs><clipPath id="a"><path fill="#fff" d="M0 0h187v46H0z"/></clipPath></defs></svg>