<svg width="159" height="227" fill="none" xmlns="http://www.w3.org/2000/svg"><g fill="#000" opacity=".6" clip-path="url(#a)"><path d="M61.678 102.798c.14-.825.164-1.343.4-1.956.375-3.724.962-7.541 2.162-11.124a19.971 19.971 0 0 1 3.626-6.696c.99-1.203 2.073-2.193 3.157-3.184 4.406-3.232 10.087-2.46 13.648 1.544 3.656 4.215 4.13 9.846 1.116 14.491-1.225 1.816-2.756 3.514-4.476 4.788-3.77 2.949-8.106 4.625-12.725 5.666-.73.071-1.673.237-2.31.52l-.07 1.556c.262 3.44.947 6.691 1.727 10.155 1.229 5.042 2.67 9.989 4.628 14.959 3.612 9.824 9.038 18.585 15.855 26.474 5.637 6.381 12.263 11.56 19.879 15.536 4.975 2.611 10.067 4.916 15.183 6.703 1.745.493 3.372 1.293 4.998 2.093.613.235 1.321.682 1.816 1.223.094.212.283.636.166.943-.118.306-.542.495-.754.59l-2.476-.422c-5.445-1.386-10.656-3.385-15.748-5.69-5.8-2.752-11.27-5.905-16.293-9.765-7.923-6.38-14.127-14.033-19.246-22.677-2.808-4.592-5.286-9.586-7.033-14.651-1.464-4.429-2.833-8.646-4.297-13.075-1.275-4.005-2.032-7.987-2.364-12.157.023-.519-.166-.943-.142-1.461-1.344-.164-2.9-.233-4.243-.397-6.2-.796-12.117-3.242-17.47-6.701-7.569-5.013-13.513-11.512-18.043-19.402-5.308-9.068-8.307-18.656-9.185-29.19-.332-4.17-.146-8.318.77-12.536 1.412-5.963 4.143-11.244 8.194-15.843.448-.707 1.202-1.297 2.05-1.675a.5.5 0 0 1 .613.235c.095.212.189.424.071.731-.117.306-.33.4-.66.802-2.543 3.419-4.591 7.38-6.145 11.882-1.788 5.115-2.02 10.3-1.64 15.719 1.208 12.417 5.269 23.82 13.03 33.828 4.505 6.123 10.212 10.948 17.12 14.477 4.267 2.165 8.888 3.41 13.65 3.83.212-.095.73-.071 1.461-.143Zm4.384-.428c.519.023.613.235.825.141 5.02-.711 9.474-2.694 13.055-6.067 1.084-.99 1.955-1.887 2.638-3.207 1.6-3.253.821-6.717-1.985-9.024-1.698-1.53-3.772-1.623-5.681-.773-.849.378-1.814 1.062-2.568 1.652-1.296 1.085-2.191 2.5-2.78 4.032-2.025 3.442-2.824 7.355-3.411 11.173-.023.518-.164 1.343-.093 2.073ZM151.626 191.797l-1.769-2.261-5.307-6.782c-.495-.542-.684-.966-.967-1.602-.189-.424-.472-1.06-.449-1.578-.165-.943.282-1.65 1.13-2.028.637-.283 1.367-.354 1.863.187 3.301 2.849 6.72 5.391 9.362 9.041.496.542.873 1.39 1.156 2.026 1.039 2.332.522 4.595-1.528 6.269-.542.496-.966.685-1.602.968-4.265 2.407-8.908 3.966-13.834 4.89-.73.071-1.249.048-1.768.025-.518-.024-.707-.448-.99-1.084.023-.518.046-1.036.471-1.225l1.908-.85c1.791-.544 3.582-1.087 5.067-1.748l4.03-1.795c1.272-.566 2.333-1.039 3.227-2.453Z"/></g><defs><clipPath id="a"><path fill="#fff" transform="rotate(-24.003 75.744 16.102)" d="M0 0h79.167v212.577H0z"/></clipPath></defs></svg>