<svg width="75" height="163" fill="none" xmlns="http://www.w3.org/2000/svg"><g fill="#000" opacity=".6" clip-path="url(#a)"><path d="M24.389 113.495a22.69 22.69 0 0 0-1.834-.55c-2.75-.917-5.318-2.2-7.335-4.217-.917-.917-2.017-2.017-2.567-3.301-.367-.733-.55-1.65-.734-2.567-.366-2.567 1.1-4.583 3.668-5.133 1.1-.367 2.384-.184 3.484 0 2.934.733 4.951 2.383 6.418 5.133.917 1.834 1.65 3.851 2.017 5.868.183.55.183 1.283.367 2.017.55.366 1.1.366 1.65.366 5.868.55 11.37-.733 16.504-3.483 3.85-2.201 7.335-4.951 10.085-8.251 9.17-11.001 14.67-23.47 16.32-37.77.918-7.702.184-15.219-2.016-22.553-1.467-4.767-3.668-9.168-6.418-13.385-2.017-3.117-4.401-6.234-6.969-8.984C49.511 8.617 40.526 3.85 29.89 2.383 25.856 1.833 52.034 21.317 48 21.5c-3.3.183-15.36-9.233-18.477-8.5-1.467.55 2.444 4.216.977 5.5C56.722 33 49.966 19.867 25 10.268c29.89 15.6 13.767 11.598 14.5 11.232 1.284-.55 12.212-3.467-11.994-15 2.567-.733 3.851 5.183 6.418 5 5.501-.367-5.501-11.5 0-10.217 7.152 1.467 13.57 4.584 19.255 8.985 5.134 4.033 9.168 8.984 12.836 14.668 1.65 2.567 3.117 5.134 4.4 8.067 3.851 8.618 5.319 17.785 4.768 27.32-.733 11.55-4.4 22.185-10.269 32.086-2.567 4.217-5.5 8.251-8.985 11.735-6.051 5.867-13.02 9.351-21.455 10.268-1.467.183-2.934.183-4.4.183-.55 0-.918-.183-1.468-.183-.366.733-.366 1.283-.366 1.65-.184 6.967-1.834 13.751-4.768 20.168-2.017 4.401-4.768 8.618-8.252 12.102l-1.284 1.283c-.366.184-.733.367-1.1.367-.55 0-1.1-.55-.917-1.1l.55-1.1c1.1-2.201 2.568-4.217 4.035-6.234 5.5-7.701 8.068-16.319 8.068-25.67 0-1.1 0-1.65-.183-2.383Zm-.367-3.851c0-.916-.367-1.833-.55-2.75-.367-1.283-.917-2.567-1.834-3.667-1.1-1.467-2.567-2.2-4.4-2.017-1.284.184-1.651.734-1.284 1.834.183.733.55 1.467 1.1 2.2 1.65 2.2 3.85 3.667 6.418 4.4h.55ZM14.853 158.966c-1.283 1.1-2.75 2.2-4.217 2.934-.734.366-1.284.733-2.017.916-1.65.367-2.934 0-4.218-1.1-.917-.733-1.467-1.65-2.017-2.75-1.1-2.2-1.65-4.584-2.384-6.967 0-.184 0-.55-.183-.734 0-.55.183-.917.733-1.1.55-.183.917-.183 1.284.183.366.551.917.917 1.1 1.467.917 1.65 1.834 3.301 2.567 4.767.367.734.734 1.467 1.284 2.017.367.55.733.734 1.467.55 1.283-.366 2.2-1.283 3.3-1.833.734-.367 1.284-.917 2.018-1.284.366-.183.733-.366.916-.55.734-.183 1.284-.183 1.65.367.368.367.368 1.1 0 1.65-.182.184-.366.55-.55.734 0 .183-.366.55-.733.733Z"/></g><defs><clipPath id="a"><path fill="#fff" d="M0 0h75v163H0z"/></clipPath></defs></svg>