<svg width="129" height="173" fill="none" xmlns="http://www.w3.org/2000/svg"><g opacity=".6" clip-path="url(#a)" fill="#000"><path d="M38.49 134.126c.069-.246.382-.423.382-.423 8.532-5.019 16.715-10.668 24.48-16.7 12.675-9.422 24.233-20.486 33.664-32.417 9.189-12 16.145-25.426 20.036-39.189 1.667-5.898 2.602-12.003 2.98-18 .034-1.052.068-2.104.346-3.087.208-.738.661-1.406 1.462-1.445.801-.039 1.464.414 1.499 1.22.21 1.121.664 2.31.631 3.363.421 4.1.286 8.308-.407 12.624-1.49 9.93-5.07 19.799-9.801 29.077-5.913 11.599-13.708 22.4-23.003 31.981-7.205 7.782-15.492 14.729-24.371 20.977-7.174 4.873-14.94 9.047-22.637 12.975-.94.531-2.055.746-3.24 1.208-1.288-.099-1.707-.483-2.022-2.164Z"/><path d="M7.558 144.756c1.638.729 3.24.651 4.6.504 7.874.103 15.644-.355 23.483-1.058 4.32-.371 8.396-.812 12.717-1.183 1.114-.215 2.334.129 3.623.228.244.069.593.699.524.945-.07.245-.209.737-.522.914-1.184.461-2.299.677-3.414.892-10.277 1.873-20.59 2.938-30.763 3.513-3.206.155-6.585-.004-9.721-.094-1.29-.099-2.892-.021-4.112-.366-2.928-.828-4.15-3.031-2.723-5.282.905-1.336 1.81-2.673 2.89-3.695 4.699-4.51 9.748-8.391 14.797-12.272l3.97-2.858c.94-.531 1.81-.815 2.473-.363.662.453.942 1.328.42 2.242-.209.737-.835 1.091-.974 1.583-2.054 2.604-4.351 5.139-7.067 7.291s-5.118 4.126-7.834 6.278c-.766.845-1.776 1.621-2.367 2.781Z"/></g><defs><clipPath id="a"><path fill="#fff" transform="rotate(15.784 20.945 151.096)" d="M0 0h90v154H0z"/></clipPath></defs></svg>