<svg width="72" height="12" fill="none" xmlns="http://www.w3.org/2000/svg"><path d="m6 0 1.975 3.282 3.731.864-2.51 2.892.33 3.816L6 9.36l-3.527 1.494.331-3.816-2.51-2.892 3.731-.864L6 0ZM21 0l1.975 3.282 3.731.864-2.51 2.892.33 3.816L21 9.36l-3.527 1.494.332-3.816-2.511-2.892 3.731-.864L21 0ZM36 0l1.975 3.282 3.731.864-2.51 2.892.33 3.816L36 9.36l-3.527 1.494.331-3.816-2.51-2.892 3.731-.864L36 0ZM51 0l1.975 3.282 3.731.864-2.51 2.892.33 3.816L51 9.36l-3.527 1.494.331-3.816-2.51-2.892 3.731-.864L51 0ZM66 0l1.975 3.282 3.731.864-2.51 2.892.33 3.816L66 9.36l-3.527 1.494.331-3.816-2.51-2.892 3.731-.864L66 0Z" fill="#F1E044"/></svg>