<svg width="138" height="109" fill="none" xmlns="http://www.w3.org/2000/svg"><path d="M23.126 106H18.81L7.438 88.502a7.763 7.763 0 0 1-.714-1.378h-.1c.089.51.133 1.6.133 3.27V106H2.938V82.193h4.6l10.99 17.083c.464.709.763 1.196.896 1.461h.066c-.11-.631-.166-1.699-.166-3.204v-15.34h3.802V106Zm20.304 0h-3.852v-2.689h-.066c-1.118 2.058-2.856 3.087-5.213 3.087-4.018 0-6.026-2.412-6.026-7.238V89h3.851v9.762c0 3.054 1.179 4.582 3.536 4.582 1.14 0 2.075-.421 2.806-1.262.741-.841 1.112-1.942 1.112-3.304V89h3.852v17Zm13.995-.183c-.753.377-1.743.565-2.972.565-3.298 0-4.947-1.583-4.947-4.748v-9.612h-2.839V89h2.839v-3.935l3.851-1.095V89h4.068v3.022h-4.068v8.499c0 1.008.183 1.727.548 2.159.365.431.974.647 1.826.647.653 0 1.218-.188 1.694-.564v3.054Zm13.181-13.148c-.464-.365-1.134-.548-2.008-.548-1.14 0-2.092.515-2.856 1.544-.764 1.03-1.145 2.43-1.145 4.2V106h-3.852V89h3.852v3.503h.066c.376-1.195.952-2.125 1.727-2.79.785-.674 1.66-1.012 2.623-1.012.697 0 1.228.105 1.593.316v3.652Zm4.666-7.238c-.631 0-1.174-.205-1.628-.615-.442-.41-.663-.93-.663-1.56 0-.631.22-1.157.663-1.577a2.31 2.31 0 0 1 1.627-.631c.653 0 1.207.21 1.66.63.454.421.681.947.681 1.578 0 .597-.227 1.112-.68 1.544-.454.42-1.008.63-1.66.63ZM77.18 106h-3.852V89h3.852v17Z" fill="url(#a)"/><path d="M81.564 105.054v-4.068c.365.332.796.631 1.294.897.51.265 1.046.492 1.61.68.565.178 1.13.316 1.694.416a9.086 9.086 0 0 0 1.56.149c1.66 0 2.895-.277 3.703-.83.819-.554 1.228-1.356 1.228-2.407 0-.565-.138-1.052-.415-1.461-.265-.42-.642-.803-1.129-1.146a11.29 11.29 0 0 0-1.726-.98 80.25 80.25 0 0 0-2.109-.995 34.87 34.87 0 0 1-2.257-1.312 10.166 10.166 0 0 1-1.827-1.46 6.486 6.486 0 0 1-1.212-1.827c-.287-.675-.431-1.466-.431-2.374 0-1.118.249-2.086.747-2.905a6.383 6.383 0 0 1 1.992-2.042c.83-.543 1.771-.941 2.822-1.196a13.095 13.095 0 0 1 3.221-.398c2.49 0 4.305.282 5.445.847v3.901c-1.35-.974-3.088-1.461-5.213-1.461-.586 0-1.173.055-1.76.166a5.317 5.317 0 0 0-1.56.548 3.405 3.405 0 0 0-1.112.98c-.288.398-.432.88-.432 1.444 0 .531.11.99.332 1.378.222.387.543.741.963 1.062.432.321.952.636 1.56.946.62.3 1.334.626 2.142.98.83.432 1.61.885 2.341 1.361a10.679 10.679 0 0 1 1.943 1.577 6.665 6.665 0 0 1 1.328 1.926c.332.697.498 1.494.498 2.39 0 1.207-.244 2.225-.73 3.056a5.86 5.86 0 0 1-1.976 2.025c-.82.52-1.766.896-2.84 1.129a16.08 16.08 0 0 1-3.402.348c-.399 0-.891-.033-1.478-.099a17.822 17.822 0 0 1-1.776-.266 15.024 15.024 0 0 1-1.727-.415c-.542-.166-.98-.354-1.311-.564Zm21.133-19.623a2.346 2.346 0 0 1-1.627-.615c-.442-.41-.664-.93-.664-1.56 0-.631.222-1.157.664-1.577a2.31 2.31 0 0 1 1.627-.631c.653 0 1.207.21 1.66.63.454.421.681.947.681 1.578 0 .597-.227 1.112-.681 1.544-.453.42-1.007.63-1.66.63ZM104.606 106h-3.851V89h3.851v17Zm14.012-.183c-.752.377-1.743.565-2.972.565-3.298 0-4.947-1.583-4.947-4.748v-9.612h-2.839V89h2.839v-3.935l3.852-1.095V89h4.067v3.022h-4.067v8.499c0 1.008.182 1.727.548 2.159.365.431.974.647 1.826.647.653 0 1.217-.188 1.693-.564v3.054Zm17.515-7.271h-11.588c.044 1.572.526 2.783 1.444 3.636.93.852 2.203 1.278 3.819 1.278 1.815 0 3.48-.542 4.997-1.627v3.105c-1.55.973-3.597 1.46-6.143 1.46-2.501 0-4.466-.769-5.893-2.307-1.417-1.55-2.125-3.724-2.125-6.525 0-2.645.78-4.797 2.34-6.458 1.572-1.67 3.52-2.506 5.844-2.506 2.324 0 4.123.747 5.396 2.24 1.272 1.495 1.909 3.57 1.909 6.226v1.478Zm-3.719-2.723c-.011-1.383-.338-2.457-.979-3.22-.642-.775-1.528-1.163-2.657-1.163-1.106 0-2.047.404-2.822 1.212-.764.808-1.234 1.865-1.411 3.171h7.869Z" fill="#545454"/><g clip-path="url(#b)" filter="url(#c)"><path d="M93.852 35.794c-.296-3.13-1.233-5.953-2.812-8.416-1.677-2.669-3.55-4.26-5.425-5.235-3.058-1.54-6.215-1.385-8.977-1.334-12.479.257-15.685-7.339-17.312-11.855 3.55 6.159 8.335 9.392 13.268 8.314C68.5-3.105 50.004 1.411 50.004 1.411c1.529 15.19 6.56 22.272 18.446 23.811 2.466.308 5.278.41 8.385.257 4.143-.205 7.399-.36 10.506 4.516 2.368 3.695 2.86 8.93 1.283 14.626-.1.308-.198.667-.296.975-2.812 9.135-10.161 17.602-19.582 22.529-13.12-6.774-20.074-17.551-21.209-25.403-.394-2.925-.246-7.082 2.91-10.007 5.623-5.235 10.851-.513 15.734 4.721.346.41.691.719.987 1.027.345.359.79.564 1.233.615v.052c.444-.052.888-.308 1.233-.616l.987-1.027c3.797-4.054 7.743-7.749 11.936-6.876-2.861-3.285-8.73-2.617-14.156 2.617v-.051c-4.143-4.414-12.33-11.855-20.864-3.952-3.6 3.387-5.13 8.416-4.34 14.164 1.578 11.136 11.492 22.94 24.662 29.406.295.154.64.205.937.205.345 0 .64-.051.937-.205C81.225 67.15 89.906 57.09 92.915 45.852c0-.102.049-.153.049-.256a29.46 29.46 0 0 0 .888-4.824c.197-1.745.197-3.387 0-4.978Z" fill="url(#d)"/></g><defs><linearGradient id="a" x1="79.098" y1="75" x2="79.008" y2="109" gradientUnits="userSpaceOnUse"><stop stop-color="#98D67D"/><stop offset="1" stop-color="#569F36"/></linearGradient><linearGradient id="d" x1="72.229" y1=".984" x2="71.138" y2="72.984" gradientUnits="userSpaceOnUse"><stop stop-color="#98D67D"/><stop offset="1" stop-color="#569F36"/></linearGradient><clipPath id="b"><path fill="#fff" transform="translate(43 1)" d="M0 0h51v72H0z"/></clipPath><filter id="c" x="41" y="0" width="55" height="76" filterUnits="userSpaceOnUse" color-interpolation-filters="sRGB"><feFlood flood-opacity="0" result="BackgroundImageFix"/><feColorMatrix in="SourceAlpha" values="0 0 0 0 0 0 0 0 0 0 0 0 0 0 0 0 0 0 127 0" result="hardAlpha"/><feOffset dy="1"/><feGaussianBlur stdDeviation="1"/><feColorMatrix values="0 0 0 0 0 0 0 0 0 0 0 0 0 0 0 0 0 0 0.25 0"/><feBlend in2="BackgroundImageFix" result="effect1_dropShadow_101_3"/><feBlend in="SourceGraphic" in2="effect1_dropShadow_101_3" result="shape"/></filter></defs></svg>